<?xml version="1.0" encoding="utf-8"?>
<!-- Generator: Adobe Illustrator 20.1.0, SVG Export Plug-In . SVG Version: 6.00 Build 0)  -->
<svg version="1.1" id="レイヤー_1" xmlns="http://www.w3.org/2000/svg" xmlns:xlink="http://www.w3.org/1999/xlink" x="0px"
	 y="0px" viewBox="0 0 200 200" style="enable-background:new 0 0 200 200;" xml:space="preserve">
<style type="text/css">
	.st0{fill:#735F36;}
	.st1{fill:#4BB56D;}
	.st2{fill:#E0614A;}
	.st3{fill:#72C297;}
	.st4{fill:#7FC7D7;}
	.st5{fill:#CC6783;}
	.st6{fill:#DE4C71;}
	.st7{fill:#EE9015;}
	.st8{fill:#DD7B25;}
	.st9{fill:#53A87D;}
	.st10{fill:#4F7ABD;}
	.st11{fill:#2FA55D;}
</style>
<g>
	<path class="st0" d="M111.6,114.4v28.3c0,16.5,0,20.4,0,29.4c0,21.1,10.8,18.8,10.8,18.8h15.3v8.7h-33.3H71.1v-8.7h15.3
		c0,0,10.8,2.3,10.8-18.8c0-8.9,0-12.9,0-29.4c0,0,0-16.3,0-26.6C97.2,116.2,107,117.2,111.6,114.4z"/>
	<circle class="st1" cx="100.8" cy="28" r="9.2"/>
	<circle class="st2" cx="53.2" cy="26.7" r="7.2"/>
	<circle class="st3" cx="66.1" cy="108.1" r="4.4"/>
	<circle class="st4" cx="117.6" cy="47.2" r="14"/>
	<circle class="st5" cx="69.1" cy="56.7" r="14.5"/>
	<circle class="st3" cx="133.4" cy="110.3" r="13.7"/>
	<ellipse class="st6" cx="45.1" cy="97.6" rx="12.7" ry="12.7"/>
	<circle class="st6" cx="75.3" cy="29.3" r="11.6"/>
	<circle class="st6" cx="144.4" cy="86.8" r="11.2"/>
	<circle class="st5" cx="123.5" cy="73.4" r="8.3"/>
	<circle class="st5" cx="83.5" cy="123.7" r="9.7"/>
	<circle class="st5" cx="86.2" cy="10.8" r="8.3"/>
	<circle class="st7" cx="94.5" cy="48.5" r="8.2"/>
	<circle class="st8" cx="60" cy="120.3" r="8.2"/>
	<circle class="st2" cx="159.1" cy="108.9" r="10"/>
	<circle class="st9" cx="103.7" cy="69.6" r="9.3"/>
	<circle class="st10" cx="139.1" cy="36.1" r="6.6"/>
	<circle class="st10" cx="46" cy="44.3" r="9.5"/>
	<circle class="st9" cx="39.5" cy="69.6" r="13.7"/>
	<ellipse class="st7" cx="161.8" cy="66.6" rx="11.8" ry="11.4"/>
	<circle class="st10" cx="80.5" cy="102.3" r="6.6"/>
	<circle class="st3" cx="102.7" cy="11.6" r="3.6"/>
	<circle class="st4" cx="87.1" cy="73.1" r="6.4"/>
	<circle class="st3" cx="84.9" cy="85.1" r="4.4"/>
	<circle class="st9" cx="139.1" cy="61.3" r="9.1"/>
	<circle class="st3" cx="119.4" cy="126.1" r="5.7"/>
	<circle class="st6" cx="125.2" cy="89.9" r="4.8"/>
	<circle class="st10" cx="103.7" cy="97.6" r="15.7"/>
	<circle class="st7" cx="67" cy="84.8" r="10.7"/>
	<circle class="st11" cx="155.6" cy="43.8" r="9.3"/>
	<circle class="st7" cx="125.2" cy="15.2" r="14.4"/>
	<circle class="st4" cx="165.5" cy="88.7" r="6.4"/>
</g>
</svg>
