<?xml version="1.0" encoding="utf-8"?>
<!-- Generator: Adobe Illustrator 20.1.0, SVG Export Plug-In . SVG Version: 6.00 Build 0)  -->
<svg version="1.1" id="レイヤー_1" xmlns="http://www.w3.org/2000/svg" xmlns:xlink="http://www.w3.org/1999/xlink" x="0px"
	 y="0px" viewBox="0 0 200 200" style="enable-background:new 0 0 200 200;" xml:space="preserve">
<style type="text/css">
	.st0{fill:#FFFFFF;}
</style>
<g>
	<path class="st0" d="M109.6,114.5v28.5c0,16.6,0,20.6,0,29.6c0,21.3,10.9,18.9,10.9,18.9h15.4v8.8h-33.6H68.7v-8.8h15.4
		c0,0,10.9,2.3,10.9-18.9c0-9,0-13,0-29.6c0,0,0-16.4,0-26.8C95.1,116.3,104.9,117.3,109.6,114.5z"/>
	<circle class="st0" cx="98.7" cy="27.4" r="9.3"/>
	<circle class="st0" cx="50.7" cy="26.1" r="7.3"/>
	<circle class="st0" cx="63.7" cy="108.2" r="4.4"/>
	<circle class="st0" cx="115.5" cy="46.8" r="14.1"/>
	<circle class="st0" cx="66.7" cy="56.3" r="14.6"/>
	<circle class="st0" cx="131.5" cy="110.4" r="13.8"/>
	<ellipse class="st0" cx="42.6" cy="97.6" rx="12.8" ry="12.8"/>
	<circle class="st0" cx="72.9" cy="28.8" r="11.7"/>
	<circle class="st0" cx="142.6" cy="86.7" r="11.3"/>
	<circle class="st0" cx="121.6" cy="73.2" r="8.4"/>
	<circle class="st0" cx="81.2" cy="123.9" r="9.8"/>
	<circle class="st0" cx="84" cy="10.1" r="8.4"/>
	<circle class="st0" cx="92.3" cy="48.1" r="8.3"/>
	<circle class="st0" cx="57.5" cy="120.5" r="8.3"/>
	<circle class="st0" cx="157.4" cy="109" r="10.1"/>
	<circle class="st0" cx="101.6" cy="69.4" r="9.4"/>
	<circle class="st0" cx="137.2" cy="35.6" r="6.7"/>
	<circle class="st0" cx="43.4" cy="43.9" r="9.6"/>
	<circle class="st0" cx="36.8" cy="69.4" r="13.8"/>
	<ellipse class="st0" cx="160.2" cy="66.4" rx="11.9" ry="11.5"/>
	<circle class="st0" cx="78.2" cy="102.3" r="6.7"/>
	<circle class="st0" cx="100.6" cy="10.9" r="3.7"/>
	<circle class="st0" cx="84.9" cy="72.8" r="6.5"/>
	<circle class="st0" cx="82.6" cy="85" r="4.5"/>
	<circle class="st0" cx="137.2" cy="61" r="9.2"/>
	<circle class="st0" cx="117.4" cy="126.3" r="5.8"/>
	<circle class="st0" cx="123.2" cy="89.8" r="4.8"/>
	<circle class="st0" cx="101.6" cy="97.6" r="15.8"/>
	<circle class="st0" cx="64.6" cy="84.6" r="10.8"/>
	<circle class="st0" cx="153.9" cy="43.4" r="9.4"/>
	<circle class="st0" cx="123.2" cy="14.5" r="14.5"/>
	<circle class="st0" cx="163.9" cy="88.6" r="6.5"/>
</g>
</svg>
