<?xml version="1.0" encoding="utf-8"?>
<!-- Generator: Adobe Illustrator 20.1.0, SVG Export Plug-In . SVG Version: 6.00 Build 0)  -->
<svg version="1.1" id="レイヤー_1" xmlns="http://www.w3.org/2000/svg" xmlns:xlink="http://www.w3.org/1999/xlink" x="0px"
	 y="0px" width="200px" height="62.8px" viewBox="0 0 200 62.8" style="enable-background:new 0 0 200 62.8;" xml:space="preserve">
<style type="text/css">
	.st0{fill:#735F36;}
	.st1{fill:#4BB56D;}
	.st2{fill:#E0614A;}
	.st3{fill:#72C297;}
	.st4{fill:#7FC7D7;}
	.st5{fill:#CC6783;}
	.st6{fill:#DE4C71;}
	.st7{fill:#EE9015;}
	.st8{fill:#DD7B25;}
	.st9{fill:#53A87D;}
	.st10{fill:#4F7ABD;}
	.st11{fill:#2FA55D;}
	.st12{fill:#459472;}
	.st13{fill:#BB4863;}
	.st14{fill:#DB8825;}
	.st15{fill:#496EA7;}
</style>
<g>
	<g>
		<path class="st0" d="M27.2,36.3v8.8c0,5.1,0,6.4,0,9.2c0,6.6,3.4,5.9,3.4,5.9h4.8v2.7H24.9H14.5v-2.7h4.8c0,0,3.4,0.7,3.4-5.9
			c0-2.8,0-4,0-9.2c0,0,0-5.1,0-8.3C22.7,36.8,25.7,37.2,27.2,36.3z"/>
		<circle class="st1" cx="23.8" cy="9.3" r="2.9"/>
		<circle class="st2" cx="8.9" cy="8.9" r="2.2"/>
		<circle class="st3" cx="13" cy="34.3" r="1.4"/>
		<circle class="st4" cx="29" cy="15.3" r="4.4"/>
		<circle class="st5" cx="13.9" cy="18.3" r="4.5"/>
		<circle class="st3" cx="34" cy="35" r="4.3"/>
		<circle class="st6" cx="6.4" cy="31" r="4"/>
		<circle class="st6" cx="15.8" cy="9.8" r="3.6"/>
		<circle class="st6" cx="37.4" cy="27.7" r="3.5"/>
		<circle class="st5" cx="30.9" cy="23.5" r="2.6"/>
		<circle class="st5" cx="18.4" cy="39.2" r="3"/>
		<circle class="st5" cx="19.3" cy="4" r="2.6"/>
		<circle class="st7" cx="21.8" cy="15.7" r="2.6"/>
		<circle class="st8" cx="11.1" cy="38.1" r="2.6"/>
		<circle class="st2" cx="42" cy="34.6" r="3.1"/>
		<circle class="st9" cx="24.7" cy="22.3" r="2.9"/>
		<circle class="st10" cx="35.7" cy="11.9" r="2.1"/>
		<circle class="st10" cx="6.7" cy="14.4" r="3"/>
		<circle class="st9" cx="4.7" cy="22.3" r="4.3"/>
		<ellipse class="st7" cx="42.8" cy="21.4" rx="3.7" ry="3.6"/>
		<circle class="st10" cx="17.4" cy="32.5" r="2.1"/>
		<circle class="st3" cx="24.4" cy="4.2" r="1.1"/>
		<circle class="st4" cx="19.5" cy="23.4" r="2"/>
		<circle class="st3" cx="18.8" cy="27.2" r="1.4"/>
		<circle class="st9" cx="35.7" cy="19.7" r="2.8"/>
		<circle class="st3" cx="29.6" cy="39.9" r="1.8"/>
		<circle class="st6" cx="31.4" cy="28.6" r="1.5"/>
		<circle class="st10" cx="24.7" cy="31" r="4.9"/>
		<circle class="st7" cx="13.3" cy="27" r="3.3"/>
		<circle class="st11" cx="40.9" cy="14.3" r="2.9"/>
		<circle class="st7" cx="31.4" cy="5.4" r="4.5"/>
		<circle class="st4" cx="44" cy="28.3" r="2"/>
	</g>
	<g>
		<path class="st12" d="M81.8,59.4c-2.3,1.2-4.7,2-7.1,2.6c-2.5,0.5-5,0.8-7.6,0.8c-2.7,0-5.3-0.4-7.6-1.3c-2.3-0.9-4.3-2.1-6-3.7
			c-1.7-1.6-3-3.5-3.9-5.8c-0.9-2.3-1.4-4.8-1.4-7.6c0-2.8,0.5-5.4,1.4-7.6c0.9-2.3,2.3-4.2,3.9-5.8c1.7-1.6,3.7-2.8,6-3.7
			c2.3-0.9,4.8-1.3,7.6-1.3c2.8,0,5.4,0.3,7.8,1c2.4,0.7,4.4,1.8,6.2,3.5l-5.5,5.9c-1.1-1.1-2.2-1.9-3.6-2.5c-1.3-0.6-3-0.8-5-0.8
			c-1.7,0-3.1,0.3-4.5,0.8c-1.3,0.6-2.5,1.3-3.4,2.4c-1,1-1.7,2.2-2.2,3.6c-0.5,1.4-0.8,2.9-0.8,4.5c0,1.7,0.3,3.2,0.8,4.5
			c0.5,1.4,1.2,2.6,2.2,3.6c1,1,2.1,1.8,3.4,2.4c1.3,0.6,2.8,0.8,4.5,0.8c1.7,0,3.1-0.2,4.4-0.6c1.2-0.4,2.2-0.8,2.9-1.2v-5.7h-6.3
			v-7.1h13.7V59.4z"/>
		<path class="st13" d="M86.2,26.8h13.6c1.8,0,3.5,0.2,5.1,0.5c1.6,0.3,3,0.9,4.2,1.7c1.2,0.8,2.2,1.9,2.9,3.3
			c0.7,1.4,1.1,3.1,1.1,5.1c0,2.5-0.6,4.6-1.9,6.3c-1.3,1.7-3.2,2.8-5.7,3.3l8.9,14.8h-9.3l-7.3-14h-3.8v14h-7.7V26.8z M93.9,41.4
			h4.6c0.7,0,1.4,0,2.2-0.1c0.8,0,1.5-0.2,2.1-0.4c0.6-0.2,1.1-0.6,1.6-1.2c0.4-0.5,0.6-1.3,0.6-2.2c0-0.9-0.2-1.6-0.5-2.1
			c-0.4-0.5-0.8-0.9-1.4-1.2c-0.6-0.3-1.2-0.5-1.9-0.6c-0.7-0.1-1.4-0.1-2.1-0.1h-5.1V41.4z"/>
		<path class="st14" d="M113.7,44.4c0-2.8,0.5-5.4,1.4-7.6c0.9-2.3,2.3-4.2,3.9-5.8c1.7-1.6,3.7-2.8,6-3.7c2.3-0.9,4.8-1.3,7.6-1.3
			c2.7,0,5.3,0.4,7.6,1.3c2.3,0.9,4.3,2.1,6,3.7c1.7,1.6,3,3.5,3.9,5.8c0.9,2.3,1.4,4.8,1.4,7.6c0,2.8-0.5,5.4-1.4,7.6
			c-0.9,2.3-2.3,4.2-3.9,5.8c-1.7,1.6-3.7,2.8-6,3.7c-2.3,0.9-4.8,1.3-7.6,1.3c-2.7,0-5.3-0.4-7.6-1.3c-2.3-0.9-4.3-2.1-6-3.7
			c-1.7-1.6-3-3.5-3.9-5.8C114.1,49.7,113.7,47.2,113.7,44.4z M121.7,44.4c0,1.7,0.3,3.2,0.8,4.5c0.5,1.4,1.2,2.6,2.2,3.6
			c1,1,2.1,1.8,3.4,2.4c1.3,0.6,2.8,0.8,4.5,0.8c1.7,0,3.1-0.3,4.5-0.8c1.3-0.6,2.5-1.3,3.4-2.4c1-1,1.7-2.2,2.2-3.6
			c0.5-1.4,0.8-2.9,0.8-4.5c0-1.6-0.3-3.1-0.8-4.5c-0.5-1.4-1.2-2.6-2.2-3.6c-1-1-2.1-1.8-3.4-2.4c-1.3-0.6-2.8-0.8-4.5-0.8
			c-1.7,0-3.1,0.3-4.5,0.8c-1.3,0.6-2.5,1.3-3.4,2.4c-1,1-1.7,2.2-2.2,3.6C122,41.3,121.7,42.8,121.7,44.4z"/>
		<path class="st15" d="M149.7,26.8h8.4l5.6,22.5h0.1l7.3-22.5h7.2l7.3,23.1h0.1l5.9-23.1h7.8l-10.3,35.1h-6.9l-7.7-24.3h-0.1
			l-7.7,24.3h-6.6L149.7,26.8z"/>
	</g>
</g>
</svg>
